<svg width="26" height="24" viewBox="0 0 26 24" fill="none" xmlns="http://www.w3.org/2000/svg">
<ellipse cx="12.5742" cy="12" rx="12.5742" ry="12" fill="#FF6681"/>
<g clip-path="url(#clip0)">
<path d="M6.96329 15.4878C7.75121 16.6275 8.54071 17.7671 9.32863 18.9067C9.59599 19.2937 10.0143 19.5137 10.5034 19.45C10.7158 19.4226 10.8919 19.3528 11.0617 19.2254C11.2819 19.0615 11.3763 18.8824 11.4848 18.6336C11.5131 18.5698 11.5414 18.5046 11.5682 18.4408C11.5288 18.5319 11.4895 18.6214 11.4486 18.7125C12.8656 15.4833 14.5484 12.3634 16.4813 9.39369C17.0317 8.54846 17.6026 7.71537 18.1924 6.89442C18.3591 6.66225 18.3858 6.27985 18.3119 6.01733C18.2364 5.75329 18.0257 5.46648 17.7693 5.3375C17.167 5.03097 16.5316 5.22217 16.1557 5.7457C14.0452 8.68503 12.1815 11.7898 10.5947 15.022C10.1071 16.0129 9.65103 17.0175 9.21068 18.0296C9.9294 17.9386 10.6481 17.849 11.3669 17.758C10.5774 16.6168 9.78943 15.4787 8.99994 14.3391C8.65709 13.8444 7.94308 13.5834 7.38634 13.9309C6.87679 14.2481 6.59685 14.9583 6.96329 15.4878Z" fill="white"/>
</g>
<defs>
<clipPath id="clip0">
<rect width="11.5546" height="14.2703" fill="white" transform="translate(6.79688 5.18921)"/>
</clipPath>
</defs>
</svg>
